<svg id="Layer_1" data-name="Layer 1" xmlns="http://www.w3.org/2000/svg" viewBox="0 0 60 60"><title>Snow</title><polygon points="45.07 28.25 40.07 28.25 41.92 25.04 40.1 23.22 37.2 28.25 31.25 28.25 31.25 22.27 36.26 19.38 34.43 17.55 31.25 19.39 31.25 14.43 28.75 14.43 28.75 19.39 25.57 17.55 23.74 19.38 28.75 22.27 28.75 28.25 22.75 28.25 19.86 23.25 18.04 25.08 19.87 28.25 14.93 28.25 14.93 30.74 19.87 30.74 18.05 33.9 19.87 35.73 22.75 30.74 28.75 30.74 28.75 36.72 23.75 39.61 25.57 41.43 28.75 39.59 28.75 44.56 31.25 44.56 31.25 39.59 34.43 41.43 36.25 39.61 31.25 36.72 31.25 30.74 37.2 30.74 40.1 35.76 41.92 33.94 40.07 30.74 45.07 30.74 45.07 28.25"/></svg>