<svg id="Layer_1" data-name="Layer 1" xmlns="http://www.w3.org/2000/svg" viewBox="0 0 60 60"><title>Dirt</title><polygon points="32.12 35.62 36.09 36.75 36.09 31.15 32.12 30.02 32.12 35.62"/><polygon points="32.12 26.5 36.09 27.63 36.09 22.03 32.12 20.9 32.12 26.5"/><polygon points="32.12 39.14 32.12 44.22 35.9 44.22 36.09 40.27 32.12 39.14"/><polygon points="32.12 13.43 32.12 17.39 36.27 18.51 36.09 14.7 32.12 13.43"/><polygon points="39.76 18.2 39.95 22.85 42.22 23.6 42.22 19.53 39.76 18.2"/><polygon points="39.95 31.97 42.22 32.72 42.22 28.07 39.95 27.32 39.95 31.97"/><polygon points="39.76 41.09 42.22 41.84 42.22 37.19 39.95 36.44 39.76 41.09"/><polygon points="27.88 35.62 23.91 36.75 23.91 31.15 27.88 30.02 27.88 35.62"/><polygon points="27.88 26.5 23.91 27.63 23.91 22.03 27.88 20.9 27.88 26.5"/><polygon points="27.88 39.14 27.88 44.22 24.1 44.22 23.91 40.27 27.88 39.14"/><polygon points="27.88 13.43 27.88 17.39 23.73 18.51 23.91 14.7 27.88 13.43"/><polygon points="20.24 18.2 20.05 22.85 17.78 23.6 17.78 19.53 20.24 18.2"/><polygon points="20.05 31.97 17.78 32.72 17.78 28.07 20.05 27.32 20.05 31.97"/><polygon points="20.24 41.09 17.78 41.84 17.78 37.19 20.05 36.44 20.24 41.09"/></svg>