<svg id="Layer_1" data-name="Layer 1" xmlns="http://www.w3.org/2000/svg" viewBox="0 0 60 60"><title>Cafe</title><polygon points="42.24 43.42 30 42.9 17.76 43.42 17.76 40.62 30 39.88 42.24 40.62 42.24 43.42"/><path d="M55.41,30.84l-15-8.92a10.82,10.82,0,0,0-20.74,0l-15,8.92L6.77,33l11.83-7L18.17,38l3.05-.25v-6.4a10.79,10.79,0,0,0,17.55,0v6.4l3.05.09-.42-11.9,11.82,7ZM30,16.94a8,8,0,0,1,5,1.73l-5,5-5-5A8,8,0,0,1,30,16.94ZM21.92,25a8,8,0,0,1,1.69-4.93l5,5L23.65,30A8,8,0,0,1,21.92,25ZM30,33.09a8,8,0,0,1-4.93-1.69L30,26.47l4.93,4.93A8,8,0,0,1,30,33.09ZM36.35,30l-4.94-4.94,5-5a8,8,0,0,1,0,9.91Z"/></svg>